<svg width="832" height="1024" viewBox="0 0 832 1024" fill="none" xmlns="http://www.w3.org/2000/svg">
<g clip-path="url(#clip0_1336_33708)">
<path d="M0 32C0 14.3269 14.3269 0 32 0H832V1024H32C14.3269 1024 0 1009.67 0 992V32Z" fill="url(#paint0_linear_1336_33708)"/>
<path opacity="0.2" fill-rule="evenodd" clip-rule="evenodd" d="M153.32 -246.508C242.458 -240.406 305.831 -163.492 360.151 -92.5541C406.115 -32.5286 422.981 38.9635 429.588 114.277C437.111 200.02 464.629 304.119 399.934 360.891C335.692 417.265 238.762 354.557 153.32 356.71C63.281 358.979 -39.2956 434.112 -106.046 373.643C-172.689 313.272 -118.304 204.109 -114.299 114.277C-110.608 31.4833 -133.28 -56.386 -83.9055 -122.949C-28.6869 -197.39 60.8504 -252.837 153.32 -246.508Z" fill="#434EAB"/>
<path d="M312.667 744C312.667 746.946 315.054 749.333 318 749.333C320.946 749.333 323.333 746.946 323.333 744C323.333 741.054 320.946 738.667 318 738.667C315.054 738.667 312.667 741.054 312.667 744ZM436.5 719L435.671 718.441L436.5 719ZM523.292 658.611C523.629 658.173 523.548 657.545 523.111 657.208L515.983 651.713C515.546 651.376 514.918 651.457 514.581 651.894C514.243 652.332 514.324 652.959 514.762 653.297L521.097 658.181L516.213 664.517C515.876 664.954 515.957 665.582 516.394 665.919C516.832 666.257 517.459 666.176 517.797 665.738L523.292 658.611ZM323.151 745.621C323.7 745.687 324.197 745.296 324.263 744.747C324.329 744.199 323.938 743.701 323.389 743.635L323.151 745.621ZM333.956 744.867C333.407 744.806 332.913 745.202 332.853 745.751C332.792 746.3 333.188 746.794 333.737 746.855L333.956 744.867ZM344.359 747.911C344.909 747.959 345.393 747.551 345.441 747.001C345.489 746.451 345.081 745.966 344.531 745.918L344.359 747.911ZM355.113 746.655C354.562 746.627 354.092 747.051 354.064 747.603C354.036 748.154 354.46 748.624 355.012 748.652L355.113 746.655ZM365.701 748.949C366.253 748.95 366.702 748.504 366.704 747.951C366.705 747.399 366.259 746.95 365.706 746.949L365.701 748.949ZM376.284 746.663C375.732 746.695 375.312 747.169 375.345 747.72C375.378 748.271 375.851 748.692 376.403 748.659L376.284 746.663ZM387.075 747.614C387.622 747.538 388.003 747.033 387.927 746.486C387.85 745.939 387.345 745.557 386.798 745.634L387.075 747.614ZM397.15 743.671C396.614 743.802 396.285 744.343 396.417 744.88C396.548 745.416 397.089 745.745 397.626 745.613L397.15 743.671ZM407.907 742.42C408.423 742.222 408.68 741.644 408.482 741.128C408.284 740.613 407.705 740.355 407.19 740.554L407.907 742.42ZM416.66 736.072C416.181 736.347 416.016 736.958 416.292 737.437C416.567 737.916 417.178 738.081 417.657 737.805L416.66 736.072ZM426.519 731.619C426.941 731.264 426.995 730.633 426.639 730.21C426.283 729.788 425.653 729.734 425.23 730.09L426.519 731.619ZM432.55 722.65C432.201 723.078 432.266 723.708 432.694 724.056C433.122 724.405 433.752 724.341 434.101 723.913L432.55 722.65ZM440.41 715.171C440.736 714.725 440.638 714.099 440.192 713.773C439.747 713.448 439.121 713.545 438.795 713.991L440.41 715.171ZM445.527 705.465C445.169 705.886 445.22 706.517 445.641 706.875C446.061 707.233 446.693 707.182 447.051 706.761L445.527 705.465ZM454.286 698.848C454.672 698.453 454.666 697.82 454.272 697.434C453.878 697.047 453.244 697.053 452.858 697.447L454.286 698.848ZM460.719 689.96C460.307 690.327 460.27 690.96 460.637 691.372C461.004 691.785 461.636 691.821 462.049 691.454L460.719 689.96ZM470.29 684.594C470.726 684.255 470.805 683.626 470.465 683.19C470.126 682.755 469.498 682.676 469.062 683.015L470.29 684.594ZM477.846 676.631C477.388 676.941 477.269 677.562 477.579 678.019C477.889 678.477 478.511 678.596 478.968 678.286L477.846 676.631ZM488.039 672.57C488.516 672.292 488.677 671.68 488.398 671.203C488.12 670.726 487.508 670.565 487.031 670.843L488.039 672.57ZM496.61 665.706C496.113 665.948 495.908 666.547 496.151 667.043C496.393 667.539 496.992 667.745 497.488 667.502L496.61 665.706ZM507.286 663.212C507.801 663.014 508.059 662.436 507.86 661.92C507.662 661.405 507.084 661.147 506.568 661.345L507.286 663.212ZM516.979 658.033C516.443 658.163 516.113 658.704 516.243 659.24C516.373 659.777 516.914 660.107 517.451 659.976L516.979 658.033ZM317.883 744.993C319.59 745.193 321.347 745.405 323.151 745.621L323.389 743.635C321.586 743.419 319.826 743.207 318.117 743.007L317.883 744.993ZM333.737 746.855C337.182 747.235 340.734 747.597 344.359 747.911L344.531 745.918C340.926 745.607 337.39 745.246 333.956 744.867L333.737 746.855ZM355.012 748.652C358.546 748.831 362.119 748.939 365.701 748.949L365.706 746.949C362.16 746.939 358.62 746.832 355.113 746.655L355.012 748.652ZM376.403 748.659C379.986 748.446 383.553 748.107 387.075 747.614L386.798 745.634C383.335 746.118 379.821 746.452 376.284 746.663L376.403 748.659ZM397.626 745.613C401.141 744.753 404.579 743.699 407.907 742.42L407.19 740.554C403.948 741.799 400.592 742.829 397.15 743.671L397.626 745.613ZM417.657 737.805C420.768 736.016 423.734 733.965 426.519 731.619L425.23 730.09C422.541 732.354 419.674 734.338 416.66 736.072L417.657 737.805ZM434.101 723.913C435.225 722.533 436.303 721.083 437.329 719.559L435.671 718.441C434.678 719.915 433.637 721.317 432.55 722.65L434.101 723.913ZM437.329 719.559C438.333 718.069 439.36 716.607 440.41 715.171L438.795 713.991C437.731 715.447 436.689 716.93 435.671 718.441L437.329 719.559ZM447.051 706.761C449.395 704.006 451.813 701.368 454.286 698.848L452.858 697.447C450.354 700 447.903 702.673 445.527 705.465L447.051 706.761ZM462.049 691.454C464.768 689.034 467.523 686.747 470.29 684.594L469.062 683.015C466.261 685.195 463.472 687.51 460.719 689.96L462.049 691.454ZM478.968 678.286C482.019 676.218 485.054 674.312 488.039 672.57L487.031 670.843C484.007 672.607 480.935 674.537 477.846 676.631L478.968 678.286ZM497.488 667.502C500.898 665.835 504.183 664.404 507.286 663.212L506.568 661.345C503.408 662.56 500.069 664.014 496.61 665.706L497.488 667.502ZM517.451 659.976C519.32 659.523 521.053 659.195 522.628 658.992L522.372 657.008C520.713 657.223 518.908 657.565 516.979 658.033L517.451 659.976Z" fill="white"/>
<path d="M573.03 647C572.699 647 572.443 646.909 572.262 646.728C572.081 646.536 571.99 646.275 571.99 645.944V636.712C571.99 636.371 572.075 636.115 572.246 635.944C572.427 635.763 572.683 635.672 573.014 635.672C573.345 635.672 573.595 635.763 573.766 635.944C573.947 636.115 574.038 636.371 574.038 636.712V645.256H578.678C578.966 645.256 579.185 645.331 579.334 645.48C579.494 645.629 579.574 645.843 579.574 646.12C579.574 646.397 579.494 646.616 579.334 646.776C579.185 646.925 578.966 647 578.678 647H573.03ZM584.638 647.16C584.073 647.16 583.566 647.053 583.118 646.84C582.681 646.616 582.334 646.317 582.078 645.944C581.833 645.571 581.71 645.149 581.71 644.68C581.71 644.104 581.86 643.651 582.158 643.32C582.457 642.979 582.942 642.733 583.614 642.584C584.286 642.435 585.188 642.36 586.318 642.36H587.118V643.512H586.334C585.673 643.512 585.145 643.544 584.75 643.608C584.356 643.672 584.073 643.784 583.902 643.944C583.742 644.093 583.662 644.307 583.662 644.584C583.662 644.936 583.785 645.224 584.03 645.448C584.276 645.672 584.617 645.784 585.054 645.784C585.406 645.784 585.716 645.704 585.982 645.544C586.26 645.373 586.478 645.144 586.638 644.856C586.798 644.568 586.878 644.237 586.878 643.864V642.024C586.878 641.491 586.761 641.107 586.526 640.872C586.292 640.637 585.897 640.52 585.342 640.52C585.033 640.52 584.697 640.557 584.334 640.632C583.982 640.707 583.609 640.835 583.214 641.016C583.012 641.112 582.83 641.139 582.67 641.096C582.521 641.053 582.404 640.968 582.318 640.84C582.233 640.701 582.19 640.552 582.19 640.392C582.19 640.232 582.233 640.077 582.318 639.928C582.404 639.768 582.548 639.651 582.75 639.576C583.241 639.373 583.71 639.229 584.158 639.144C584.617 639.059 585.033 639.016 585.406 639.016C586.174 639.016 586.804 639.133 587.294 639.368C587.796 639.603 588.169 639.96 588.414 640.44C588.66 640.909 588.782 641.517 588.782 642.264V646.104C588.782 646.435 588.702 646.691 588.542 646.872C588.382 647.043 588.153 647.128 587.854 647.128C587.556 647.128 587.321 647.043 587.15 646.872C586.99 646.691 586.91 646.435 586.91 646.104V645.336H587.038C586.964 645.709 586.814 646.035 586.59 646.312C586.377 646.579 586.105 646.787 585.774 646.936C585.444 647.085 585.065 647.16 584.638 647.16ZM593.084 647.128C592.764 647.128 592.519 647.043 592.348 646.872C592.178 646.691 592.092 646.435 592.092 646.104V636.6C592.092 636.269 592.178 636.019 592.348 635.848C592.519 635.677 592.764 635.592 593.084 635.592C593.404 635.592 593.65 635.677 593.82 635.848C594.002 636.019 594.092 636.269 594.092 636.6V640.744H593.868C594.103 640.179 594.466 639.752 594.957 639.464C595.458 639.165 596.023 639.016 596.653 639.016C597.282 639.016 597.799 639.133 598.205 639.368C598.61 639.603 598.914 639.96 599.116 640.44C599.319 640.909 599.42 641.507 599.42 642.232V646.104C599.42 646.435 599.335 646.691 599.165 646.872C598.994 647.043 598.749 647.128 598.429 647.128C598.109 647.128 597.858 647.043 597.677 646.872C597.506 646.691 597.421 646.435 597.421 646.104V642.328C597.421 641.72 597.303 641.277 597.069 641C596.845 640.723 596.492 640.584 596.012 640.584C595.426 640.584 594.957 640.771 594.605 641.144C594.263 641.507 594.092 641.992 594.092 642.6V646.104C594.092 646.787 593.756 647.128 593.084 647.128ZM609.348 647.112C609.028 647.112 608.782 647.016 608.612 646.824C608.441 646.632 608.356 646.365 608.356 646.024V640.152C608.356 639.8 608.441 639.533 608.612 639.352C608.782 639.16 609.028 639.064 609.348 639.064C609.668 639.064 609.913 639.16 610.084 639.352C610.265 639.533 610.356 639.8 610.356 640.152V646.024C610.356 646.365 610.27 646.632 610.1 646.824C609.929 647.016 609.678 647.112 609.348 647.112ZM609.348 637.576C608.974 637.576 608.681 637.485 608.468 637.304C608.265 637.112 608.164 636.851 608.164 636.52C608.164 636.179 608.265 635.917 608.468 635.736C608.681 635.555 608.974 635.464 609.348 635.464C609.732 635.464 610.025 635.555 610.228 635.736C610.43 635.917 610.532 636.179 610.532 636.52C610.532 636.851 610.43 637.112 610.228 637.304C610.025 637.485 609.732 637.576 609.348 637.576ZM614.706 647.128C614.386 647.128 614.14 647.043 613.97 646.872C613.799 646.691 613.714 646.435 613.714 646.104V640.056C613.714 639.725 613.799 639.475 613.97 639.304C614.14 639.133 614.38 639.048 614.69 639.048C614.999 639.048 615.239 639.133 615.41 639.304C615.58 639.475 615.666 639.725 615.666 640.056V641.144L615.49 640.744C615.724 640.179 616.087 639.752 616.578 639.464C617.079 639.165 617.644 639.016 618.274 639.016C618.903 639.016 619.42 639.133 619.826 639.368C620.231 639.603 620.535 639.96 620.738 640.44C620.94 640.909 621.042 641.507 621.042 642.232V646.104C621.042 646.435 620.956 646.691 620.786 646.872C620.615 647.043 620.37 647.128 620.05 647.128C619.73 647.128 619.479 647.043 619.298 646.872C619.127 646.691 619.042 646.435 619.042 646.104V642.328C619.042 641.72 618.924 641.277 618.69 641C618.466 640.723 618.114 640.584 617.634 640.584C617.047 640.584 616.578 640.771 616.226 641.144C615.884 641.507 615.714 641.992 615.714 642.6V646.104C615.714 646.787 615.378 647.128 614.706 647.128ZM625.345 647.112C625.025 647.112 624.78 647.016 624.609 646.824C624.438 646.632 624.353 646.365 624.353 646.024V640.152C624.353 639.8 624.438 639.533 624.609 639.352C624.78 639.16 625.025 639.064 625.345 639.064C625.665 639.064 625.91 639.16 626.081 639.352C626.262 639.533 626.353 639.8 626.353 640.152V646.024C626.353 646.365 626.268 646.632 626.097 646.824C625.926 647.016 625.676 647.112 625.345 647.112ZM625.345 637.576C624.972 637.576 624.678 637.485 624.465 637.304C624.262 637.112 624.161 636.851 624.161 636.52C624.161 636.179 624.262 635.917 624.465 635.736C624.678 635.555 624.972 635.464 625.345 635.464C625.729 635.464 626.022 635.555 626.225 635.736C626.428 635.917 626.529 636.179 626.529 636.52C626.529 636.851 626.428 637.112 626.225 637.304C626.022 637.485 625.729 637.576 625.345 637.576ZM636.327 647.128C636.007 647.128 635.762 647.043 635.591 646.872C635.42 646.691 635.335 646.435 635.335 646.104V636.6C635.335 636.269 635.42 636.019 635.591 635.848C635.762 635.677 636.007 635.592 636.327 635.592C636.647 635.592 636.892 635.677 637.063 635.848C637.244 636.019 637.335 636.269 637.335 636.6V642.504H637.367L640.007 639.72C640.22 639.507 640.407 639.341 640.567 639.224C640.727 639.107 640.946 639.048 641.223 639.048C641.5 639.048 641.708 639.123 641.847 639.272C641.996 639.411 642.071 639.581 642.071 639.784C642.071 639.987 641.975 640.189 641.783 640.392L638.999 643.336V642.504L642.055 645.8C642.247 646.003 642.332 646.211 642.311 646.424C642.3 646.627 642.215 646.797 642.055 646.936C641.895 647.064 641.692 647.128 641.447 647.128C641.148 647.128 640.908 647.069 640.727 646.952C640.556 646.835 640.364 646.659 640.151 646.424L637.367 643.512H637.335V646.104C637.335 646.787 636.999 647.128 636.327 647.128ZM648.893 647.16C648.008 647.16 647.245 646.995 646.605 646.664C645.965 646.333 645.469 645.864 645.117 645.256C644.776 644.648 644.605 643.928 644.605 643.096C644.605 642.285 644.77 641.576 645.101 640.968C645.442 640.36 645.906 639.885 646.493 639.544C647.09 639.192 647.768 639.016 648.525 639.016C649.08 639.016 649.576 639.107 650.013 639.288C650.461 639.469 650.84 639.731 651.149 640.072C651.469 640.413 651.709 640.829 651.869 641.32C652.04 641.8 652.125 642.344 652.125 642.952C652.125 643.144 652.056 643.293 651.917 643.4C651.789 643.496 651.602 643.544 651.357 643.544H646.221V642.392H650.717L650.461 642.632C650.461 642.141 650.386 641.731 650.237 641.4C650.098 641.069 649.89 640.819 649.613 640.648C649.346 640.467 649.01 640.376 648.605 640.376C648.157 640.376 647.773 640.483 647.453 640.696C647.144 640.899 646.904 641.192 646.733 641.576C646.573 641.949 646.493 642.397 646.493 642.92V643.032C646.493 643.907 646.696 644.563 647.101 645C647.517 645.427 648.125 645.64 648.925 645.64C649.202 645.64 649.512 645.608 649.853 645.544C650.205 645.469 650.536 645.347 650.845 645.176C651.069 645.048 651.266 644.995 651.437 645.016C651.608 645.027 651.741 645.085 651.837 645.192C651.944 645.299 652.008 645.432 652.029 645.592C652.05 645.741 652.018 645.896 651.933 646.056C651.858 646.216 651.725 646.355 651.533 646.472C651.16 646.707 650.728 646.883 650.237 647C649.757 647.107 649.309 647.16 648.893 647.16ZM655.981 647.128C655.661 647.128 655.415 647.043 655.245 646.872C655.074 646.691 654.989 646.435 654.989 646.104V640.056C654.989 639.725 655.074 639.475 655.245 639.304C655.415 639.133 655.655 639.048 655.965 639.048C656.274 639.048 656.514 639.133 656.685 639.304C656.855 639.475 656.941 639.725 656.941 640.056V641.144L656.765 640.744C656.999 640.179 657.362 639.752 657.853 639.464C658.354 639.165 658.919 639.016 659.549 639.016C660.178 639.016 660.695 639.133 661.101 639.368C661.506 639.603 661.81 639.96 662.013 640.44C662.215 640.909 662.317 641.507 662.317 642.232V646.104C662.317 646.435 662.231 646.691 662.061 646.872C661.89 647.043 661.645 647.128 661.325 647.128C661.005 647.128 660.754 647.043 660.573 646.872C660.402 646.691 660.317 646.435 660.317 646.104V642.328C660.317 641.72 660.199 641.277 659.965 641C659.741 640.723 659.389 640.584 658.909 640.584C658.322 640.584 657.853 640.771 657.501 641.144C657.159 641.507 656.989 641.992 656.989 642.6V646.104C656.989 646.787 656.653 647.128 655.981 647.128ZM668.204 647.16C667.639 647.16 667.132 647.053 666.684 646.84C666.247 646.616 665.9 646.317 665.644 645.944C665.399 645.571 665.276 645.149 665.276 644.68C665.276 644.104 665.425 643.651 665.724 643.32C666.023 642.979 666.508 642.733 667.18 642.584C667.852 642.435 668.753 642.36 669.884 642.36H670.684V643.512H669.9C669.239 643.512 668.711 643.544 668.316 643.608C667.921 643.672 667.639 643.784 667.468 643.944C667.308 644.093 667.228 644.307 667.228 644.584C667.228 644.936 667.351 645.224 667.596 645.448C667.841 645.672 668.183 645.784 668.62 645.784C668.972 645.784 669.281 645.704 669.548 645.544C669.825 645.373 670.044 645.144 670.204 644.856C670.364 644.568 670.444 644.237 670.444 643.864V642.024C670.444 641.491 670.327 641.107 670.092 640.872C669.857 640.637 669.463 640.52 668.908 640.52C668.599 640.52 668.263 640.557 667.9 640.632C667.548 640.707 667.175 640.835 666.78 641.016C666.577 641.112 666.396 641.139 666.236 641.096C666.087 641.053 665.969 640.968 665.884 640.84C665.799 640.701 665.756 640.552 665.756 640.392C665.756 640.232 665.799 640.077 665.884 639.928C665.969 639.768 666.113 639.651 666.316 639.576C666.807 639.373 667.276 639.229 667.724 639.144C668.183 639.059 668.599 639.016 668.972 639.016C669.74 639.016 670.369 639.133 670.86 639.368C671.361 639.603 671.735 639.96 671.98 640.44C672.225 640.909 672.348 641.517 672.348 642.264V646.104C672.348 646.435 672.268 646.691 672.108 646.872C671.948 647.043 671.719 647.128 671.42 647.128C671.121 647.128 670.887 647.043 670.716 646.872C670.556 646.691 670.476 646.435 670.476 646.104V645.336H670.604C670.529 645.709 670.38 646.035 670.156 646.312C669.943 646.579 669.671 646.787 669.34 646.936C669.009 647.085 668.631 647.16 668.204 647.16ZM676.65 650.008C676.33 650.008 676.085 649.923 675.914 649.752C675.743 649.581 675.658 649.331 675.658 649V640.056C675.658 639.725 675.743 639.475 675.914 639.304C676.085 639.133 676.325 639.048 676.634 639.048C676.954 639.048 677.199 639.133 677.37 639.304C677.541 639.475 677.626 639.725 677.626 640.056V641.304L677.45 640.824C677.61 640.28 677.935 639.843 678.426 639.512C678.927 639.181 679.509 639.016 680.17 639.016C680.853 639.016 681.45 639.181 681.962 639.512C682.485 639.843 682.89 640.312 683.178 640.92C683.466 641.517 683.61 642.237 683.61 643.08C683.61 643.912 683.466 644.637 683.178 645.256C682.89 645.864 682.49 646.333 681.978 646.664C681.466 646.995 680.863 647.16 680.17 647.16C679.519 647.16 678.949 647 678.458 646.68C677.967 646.349 677.637 645.923 677.466 645.4H677.658V649C677.658 649.331 677.567 649.581 677.386 649.752C677.215 649.923 676.97 650.008 676.65 650.008ZM679.61 645.64C680.005 645.64 680.351 645.544 680.65 645.352C680.949 645.16 681.178 644.877 681.338 644.504C681.509 644.12 681.594 643.645 681.594 643.08C681.594 642.227 681.413 641.592 681.05 641.176C680.687 640.749 680.207 640.536 679.61 640.536C679.215 640.536 678.869 640.632 678.57 640.824C678.271 641.005 678.037 641.288 677.866 641.672C677.706 642.045 677.626 642.515 677.626 643.08C677.626 643.923 677.807 644.563 678.17 645C678.533 645.427 679.013 645.64 679.61 645.64ZM689.108 647.16C688.543 647.16 688.036 647.053 687.588 646.84C687.151 646.616 686.804 646.317 686.548 645.944C686.303 645.571 686.18 645.149 686.18 644.68C686.18 644.104 686.329 643.651 686.628 643.32C686.927 642.979 687.412 642.733 688.084 642.584C688.756 642.435 689.657 642.36 690.788 642.36H691.588V643.512H690.804C690.143 643.512 689.615 643.544 689.22 643.608C688.825 643.672 688.543 643.784 688.372 643.944C688.212 644.093 688.132 644.307 688.132 644.584C688.132 644.936 688.255 645.224 688.5 645.448C688.745 645.672 689.087 645.784 689.524 645.784C689.876 645.784 690.185 645.704 690.452 645.544C690.729 645.373 690.948 645.144 691.108 644.856C691.268 644.568 691.348 644.237 691.348 643.864V642.024C691.348 641.491 691.231 641.107 690.996 640.872C690.761 640.637 690.367 640.52 689.812 640.52C689.503 640.52 689.167 640.557 688.804 640.632C688.452 640.707 688.079 640.835 687.684 641.016C687.481 641.112 687.3 641.139 687.14 641.096C686.991 641.053 686.873 640.968 686.788 640.84C686.703 640.701 686.66 640.552 686.66 640.392C686.66 640.232 686.703 640.077 686.788 639.928C686.873 639.768 687.017 639.651 687.22 639.576C687.711 639.373 688.18 639.229 688.628 639.144C689.087 639.059 689.503 639.016 689.876 639.016C690.644 639.016 691.273 639.133 691.764 639.368C692.265 639.603 692.639 639.96 692.884 640.44C693.129 640.909 693.252 641.517 693.252 642.264V646.104C693.252 646.435 693.172 646.691 693.012 646.872C692.852 647.043 692.623 647.128 692.324 647.128C692.025 647.128 691.791 647.043 691.62 646.872C691.46 646.691 691.38 646.435 691.38 646.104V645.336H691.508C691.433 645.709 691.284 646.035 691.06 646.312C690.847 646.579 690.575 646.787 690.244 646.936C689.913 647.085 689.535 647.16 689.108 647.16ZM564.705 674.04C564.129 674.04 563.569 673.987 563.025 673.88C562.492 673.773 562.007 673.608 561.569 673.384C561.367 673.277 561.228 673.149 561.153 673C561.089 672.851 561.068 672.696 561.089 672.536C561.121 672.387 561.185 672.253 561.281 672.136C561.388 672.019 561.516 671.939 561.665 671.896C561.815 671.853 561.969 671.875 562.129 671.96C562.599 672.195 563.041 672.344 563.457 672.408C563.884 672.483 564.247 672.52 564.545 672.52C565.26 672.52 565.793 672.344 566.145 671.992C566.508 671.651 566.689 671.139 566.689 670.456V669.016H566.833C566.673 669.56 566.337 669.997 565.825 670.328C565.324 670.648 564.753 670.808 564.113 670.808C563.409 670.808 562.796 670.648 562.273 670.328C561.751 669.997 561.345 669.539 561.057 668.952C560.769 668.365 560.625 667.683 560.625 666.904C560.625 666.317 560.705 665.789 560.865 665.32C561.036 664.84 561.271 664.429 561.569 664.088C561.879 663.747 562.247 663.485 562.673 663.304C563.111 663.112 563.591 663.016 564.113 663.016C564.775 663.016 565.351 663.181 565.841 663.512C566.343 663.832 566.668 664.259 566.817 664.792L566.657 665.192V664.056C566.657 663.725 566.743 663.475 566.913 663.304C567.095 663.133 567.34 663.048 567.649 663.048C567.969 663.048 568.215 663.133 568.385 663.304C568.556 663.475 568.641 663.725 568.641 664.056V670.216C568.641 671.485 568.305 672.44 567.633 673.08C566.961 673.72 565.985 674.04 564.705 674.04ZM564.657 669.288C565.073 669.288 565.431 669.192 565.729 669C566.028 668.808 566.257 668.536 566.417 668.184C566.588 667.821 566.673 667.395 566.673 666.904C566.673 666.168 566.492 665.592 566.129 665.176C565.767 664.749 565.276 664.536 564.657 664.536C564.241 664.536 563.884 664.632 563.585 664.824C563.287 665.016 563.052 665.288 562.881 665.64C562.721 665.992 562.641 666.413 562.641 666.904C562.641 667.64 562.823 668.221 563.185 668.648C563.548 669.075 564.039 669.288 564.657 669.288ZM574.569 671.16C574.004 671.16 573.497 671.053 573.049 670.84C572.612 670.616 572.265 670.317 572.009 669.944C571.764 669.571 571.641 669.149 571.641 668.68C571.641 668.104 571.791 667.651 572.089 667.32C572.388 666.979 572.873 666.733 573.545 666.584C574.217 666.435 575.119 666.36 576.249 666.36H577.049V667.512H576.265C575.604 667.512 575.076 667.544 574.681 667.608C574.287 667.672 574.004 667.784 573.833 667.944C573.673 668.093 573.593 668.307 573.593 668.584C573.593 668.936 573.716 669.224 573.961 669.448C574.207 669.672 574.548 669.784 574.985 669.784C575.337 669.784 575.647 669.704 575.913 669.544C576.191 669.373 576.409 669.144 576.569 668.856C576.729 668.568 576.809 668.237 576.809 667.864V666.024C576.809 665.491 576.692 665.107 576.457 664.872C576.223 664.637 575.828 664.52 575.273 664.52C574.964 664.52 574.628 664.557 574.265 664.632C573.913 664.707 573.54 664.835 573.145 665.016C572.943 665.112 572.761 665.139 572.601 665.096C572.452 665.053 572.335 664.968 572.249 664.84C572.164 664.701 572.121 664.552 572.121 664.392C572.121 664.232 572.164 664.077 572.249 663.928C572.335 663.768 572.479 663.651 572.681 663.576C573.172 663.373 573.641 663.229 574.089 663.144C574.548 663.059 574.964 663.016 575.337 663.016C576.105 663.016 576.735 663.133 577.225 663.368C577.727 663.603 578.1 663.96 578.345 664.44C578.591 664.909 578.713 665.517 578.713 666.264V670.104C578.713 670.435 578.633 670.691 578.473 670.872C578.313 671.043 578.084 671.128 577.785 671.128C577.487 671.128 577.252 671.043 577.081 670.872C576.921 670.691 576.841 670.435 576.841 670.104V669.336H576.969C576.895 669.709 576.745 670.035 576.521 670.312C576.308 670.579 576.036 670.787 575.705 670.936C575.375 671.085 574.996 671.16 574.569 671.16ZM592.159 671.16C591.498 671.16 590.917 670.995 590.415 670.664C589.925 670.333 589.599 669.891 589.439 669.336L589.615 668.936V670.104C589.615 670.435 589.53 670.691 589.359 670.872C589.189 671.043 588.949 671.128 588.639 671.128C588.319 671.128 588.074 671.043 587.903 670.872C587.733 670.691 587.647 670.435 587.647 670.104V660.6C587.647 660.269 587.733 660.019 587.903 659.848C588.074 659.677 588.319 659.592 588.639 659.592C588.959 659.592 589.205 659.677 589.375 659.848C589.557 660.019 589.647 660.269 589.647 660.6V664.76H589.455C589.626 664.237 589.957 663.816 590.447 663.496C590.938 663.176 591.509 663.016 592.159 663.016C592.853 663.016 593.455 663.181 593.967 663.512C594.479 663.843 594.879 664.312 595.167 664.92C595.455 665.517 595.599 666.237 595.599 667.08C595.599 667.912 595.455 668.637 595.167 669.256C594.879 669.864 594.474 670.333 593.951 670.664C593.439 670.995 592.842 671.16 592.159 671.16ZM591.599 669.64C591.994 669.64 592.341 669.544 592.639 669.352C592.938 669.16 593.167 668.877 593.327 668.504C593.498 668.12 593.583 667.645 593.583 667.08C593.583 666.227 593.402 665.592 593.039 665.176C592.677 664.749 592.197 664.536 591.599 664.536C591.205 664.536 590.858 664.632 590.559 664.824C590.261 665.005 590.026 665.288 589.855 665.672C589.695 666.045 589.615 666.515 589.615 667.08C589.615 667.923 589.797 668.563 590.159 669C590.522 669.427 591.002 669.64 591.599 669.64ZM599.513 671.112C599.193 671.112 598.948 671.016 598.777 670.824C598.606 670.632 598.521 670.365 598.521 670.024V664.152C598.521 663.8 598.606 663.533 598.777 663.352C598.948 663.16 599.193 663.064 599.513 663.064C599.833 663.064 600.078 663.16 600.249 663.352C600.43 663.533 600.521 663.8 600.521 664.152V670.024C600.521 670.365 600.436 670.632 600.265 670.824C600.094 671.016 599.844 671.112 599.513 671.112ZM599.513 661.576C599.14 661.576 598.846 661.485 598.633 661.304C598.43 661.112 598.329 660.851 598.329 660.52C598.329 660.179 598.43 659.917 598.633 659.736C598.846 659.555 599.14 659.464 599.513 659.464C599.897 659.464 600.19 659.555 600.393 659.736C600.596 659.917 600.697 660.179 600.697 660.52C600.697 660.851 600.596 661.112 600.393 661.304C600.19 661.485 599.897 661.576 599.513 661.576ZM606.743 671.16C606.284 671.16 605.799 671.112 605.287 671.016C604.775 670.92 604.316 670.755 603.911 670.52C603.74 670.413 603.618 670.291 603.543 670.152C603.479 670.003 603.452 669.859 603.463 669.72C603.484 669.571 603.538 669.443 603.623 669.336C603.719 669.229 603.836 669.16 603.975 669.128C604.124 669.096 604.284 669.123 604.455 669.208C604.882 669.411 605.282 669.555 605.655 669.64C606.028 669.715 606.396 669.752 606.759 669.752C607.271 669.752 607.65 669.667 607.895 669.496C608.151 669.315 608.279 669.08 608.279 668.792C608.279 668.547 608.194 668.36 608.023 668.232C607.863 668.093 607.618 667.992 607.287 667.928L605.687 667.624C605.026 667.496 604.519 667.256 604.167 666.904C603.826 666.541 603.655 666.077 603.655 665.512C603.655 665 603.794 664.557 604.071 664.184C604.359 663.811 604.754 663.523 605.255 663.32C605.756 663.117 606.332 663.016 606.983 663.016C607.452 663.016 607.89 663.069 608.295 663.176C608.711 663.272 609.111 663.427 609.495 663.64C609.655 663.725 609.762 663.837 609.815 663.976C609.879 664.115 609.895 664.259 609.863 664.408C609.831 664.547 609.767 664.675 609.671 664.792C609.575 664.899 609.452 664.968 609.303 665C609.164 665.021 609.004 664.989 608.823 664.904C608.492 664.733 608.172 664.611 607.863 664.536C607.564 664.461 607.276 664.424 606.999 664.424C606.476 664.424 606.087 664.515 605.831 664.696C605.586 664.877 605.463 665.117 605.463 665.416C605.463 665.64 605.538 665.827 605.687 665.976C605.836 666.125 606.066 666.227 606.375 666.28L607.975 666.584C608.668 666.712 609.191 666.947 609.543 667.288C609.906 667.629 610.087 668.088 610.087 668.664C610.087 669.443 609.783 670.056 609.175 670.504C608.567 670.941 607.756 671.16 606.743 671.16ZM615.548 671.16C614.982 671.16 614.476 671.053 614.028 670.84C613.59 670.616 613.244 670.317 612.988 669.944C612.742 669.571 612.62 669.149 612.62 668.68C612.62 668.104 612.769 667.651 613.068 667.32C613.366 666.979 613.852 666.733 614.524 666.584C615.196 666.435 616.097 666.36 617.228 666.36H618.028V667.512H617.244C616.582 667.512 616.054 667.544 615.66 667.608C615.265 667.672 614.982 667.784 614.812 667.944C614.652 668.093 614.572 668.307 614.572 668.584C614.572 668.936 614.694 669.224 614.94 669.448C615.185 669.672 615.526 669.784 615.964 669.784C616.316 669.784 616.625 669.704 616.892 669.544C617.169 669.373 617.388 669.144 617.548 668.856C617.708 668.568 617.788 668.237 617.788 667.864V666.024C617.788 665.491 617.67 665.107 617.436 664.872C617.201 664.637 616.806 664.52 616.252 664.52C615.942 664.52 615.606 664.557 615.244 664.632C614.892 664.707 614.518 664.835 614.124 665.016C613.921 665.112 613.74 665.139 613.58 665.096C613.43 665.053 613.313 664.968 613.228 664.84C613.142 664.701 613.1 664.552 613.1 664.392C613.1 664.232 613.142 664.077 613.228 663.928C613.313 663.768 613.457 663.651 613.66 663.576C614.15 663.373 614.62 663.229 615.068 663.144C615.526 663.059 615.942 663.016 616.316 663.016C617.084 663.016 617.713 663.133 618.204 663.368C618.705 663.603 619.078 663.96 619.324 664.44C619.569 664.909 619.692 665.517 619.692 666.264V670.104C619.692 670.435 619.612 670.691 619.452 670.872C619.292 671.043 619.062 671.128 618.764 671.128C618.465 671.128 618.23 671.043 618.06 670.872C617.9 670.691 617.82 670.435 617.82 670.104V669.336H617.948C617.873 669.709 617.724 670.035 617.5 670.312C617.286 670.579 617.014 670.787 616.684 670.936C616.353 671.085 615.974 671.16 615.548 671.16ZM629.857 671C629.527 671 629.271 670.909 629.089 670.728C628.908 670.536 628.817 670.275 628.817 669.944V660.712C628.817 660.371 628.903 660.115 629.073 659.944C629.255 659.763 629.511 659.672 629.841 659.672C630.172 659.672 630.423 659.763 630.593 659.944C630.775 660.115 630.865 660.371 630.865 660.712V669.256H635.505C635.793 669.256 636.012 669.331 636.161 669.48C636.321 669.629 636.401 669.843 636.401 670.12C636.401 670.397 636.321 670.616 636.161 670.776C636.012 670.925 635.793 671 635.505 671H629.857ZM643.528 671.16C642.44 671.16 641.486 670.92 640.664 670.44C639.854 669.96 639.224 669.288 638.776 668.424C638.328 667.549 638.104 666.525 638.104 665.352C638.104 664.467 638.232 663.672 638.488 662.968C638.744 662.253 639.107 661.645 639.576 661.144C640.056 660.632 640.627 660.243 641.288 659.976C641.96 659.699 642.707 659.56 643.528 659.56C644.627 659.56 645.582 659.8 646.392 660.28C647.203 660.749 647.832 661.416 648.28 662.28C648.728 663.144 648.952 664.163 648.952 665.336C648.952 666.221 648.824 667.021 648.568 667.736C648.312 668.451 647.944 669.064 647.464 669.576C646.995 670.088 646.424 670.483 645.752 670.76C645.091 671.027 644.35 671.16 643.528 671.16ZM643.528 669.4C644.222 669.4 644.808 669.24 645.288 668.92C645.779 668.6 646.152 668.136 646.408 667.528C646.675 666.92 646.808 666.195 646.808 665.352C646.808 664.072 646.52 663.08 645.944 662.376C645.379 661.672 644.574 661.32 643.528 661.32C642.846 661.32 642.259 661.48 641.768 661.8C641.278 662.109 640.899 662.568 640.632 663.176C640.376 663.773 640.248 664.499 640.248 665.352C640.248 666.621 640.536 667.613 641.112 668.328C641.688 669.043 642.494 669.4 643.528 669.4ZM657.739 671.16C656.491 671.16 655.435 670.925 654.571 670.456C653.717 669.987 653.067 669.32 652.619 668.456C652.171 667.592 651.947 666.568 651.947 665.384C651.947 664.488 652.075 663.683 652.331 662.968C652.597 662.253 652.976 661.645 653.467 661.144C653.968 660.632 654.576 660.243 655.291 659.976C656.005 659.699 656.816 659.56 657.723 659.56C658.32 659.56 658.917 659.635 659.515 659.784C660.123 659.923 660.693 660.163 661.227 660.504C661.408 660.621 661.525 660.765 661.579 660.936C661.643 661.107 661.653 661.283 661.611 661.464C661.568 661.635 661.488 661.784 661.371 661.912C661.253 662.04 661.104 662.12 660.923 662.152C660.752 662.184 660.56 662.141 660.347 662.024C659.941 661.789 659.531 661.619 659.115 661.512C658.699 661.405 658.235 661.352 657.723 661.352C656.933 661.352 656.267 661.512 655.723 661.832C655.179 662.141 654.768 662.595 654.491 663.192C654.224 663.789 654.091 664.52 654.091 665.384C654.091 666.696 654.405 667.693 655.035 668.376C655.664 669.059 656.597 669.4 657.835 669.4C658.261 669.4 658.693 669.357 659.131 669.272C659.568 669.187 659.995 669.069 660.411 668.92L660.011 669.832V666.424H658.251C657.984 666.424 657.776 666.355 657.627 666.216C657.488 666.077 657.419 665.891 657.419 665.656C657.419 665.411 657.488 665.224 657.627 665.096C657.776 664.968 657.984 664.904 658.251 664.904H660.891C661.157 664.904 661.36 664.979 661.499 665.128C661.648 665.267 661.723 665.469 661.723 665.736V669.624C661.723 669.859 661.675 670.056 661.579 670.216C661.493 670.376 661.349 670.493 661.147 670.568C660.677 670.739 660.139 670.883 659.531 671C658.923 671.107 658.325 671.16 657.739 671.16ZM666.4 671.128C666.069 671.128 665.813 671.037 665.632 670.856C665.461 670.664 665.376 670.403 665.376 670.072V660.648C665.376 660.307 665.461 660.045 665.632 659.864C665.813 659.683 666.069 659.592 666.4 659.592C666.731 659.592 666.981 659.683 667.152 659.864C667.333 660.045 667.424 660.307 667.424 660.648V670.072C667.424 670.403 667.339 670.664 667.168 670.856C666.997 671.037 666.741 671.128 666.4 671.128ZM672.132 671.128C671.822 671.128 671.582 671.043 671.412 670.872C671.252 670.701 671.172 670.456 671.172 670.136V660.616C671.172 660.285 671.252 660.035 671.412 659.864C671.582 659.683 671.801 659.592 672.068 659.592C672.313 659.592 672.494 659.64 672.612 659.736C672.74 659.821 672.889 659.971 673.06 660.184L679.188 668.136H678.772V660.568C678.772 660.259 678.852 660.019 679.012 659.848C679.182 659.677 679.422 659.592 679.732 659.592C680.041 659.592 680.276 659.677 680.436 659.848C680.596 660.019 680.676 660.259 680.676 660.568V670.168C680.676 670.467 680.601 670.701 680.452 670.872C680.302 671.043 680.1 671.128 679.844 671.128C679.598 671.128 679.401 671.08 679.252 670.984C679.113 670.888 678.958 670.733 678.788 670.52L672.676 662.568H673.076V670.136C673.076 670.456 672.996 670.701 672.836 670.872C672.676 671.043 672.441 671.128 672.132 671.128ZM692.38 667.736C692.178 667.736 692.018 667.672 691.9 667.544C691.794 667.405 691.74 667.224 691.74 667C691.74 666.669 691.778 666.36 691.852 666.072C691.938 665.773 692.071 665.475 692.252 665.176C692.434 664.877 692.674 664.563 692.972 664.232C693.196 663.976 693.372 663.752 693.5 663.56C693.639 663.357 693.735 663.165 693.788 662.984C693.852 662.803 693.884 662.616 693.884 662.424C693.884 662.072 693.756 661.795 693.5 661.592C693.244 661.389 692.882 661.288 692.412 661.288C691.986 661.288 691.596 661.347 691.244 661.464C690.903 661.571 690.556 661.725 690.204 661.928C689.97 662.067 689.756 662.131 689.564 662.12C689.383 662.099 689.234 662.029 689.116 661.912C688.999 661.795 688.924 661.651 688.892 661.48C688.86 661.309 688.887 661.133 688.972 660.952C689.058 660.771 689.212 660.605 689.436 660.456C689.874 660.168 690.375 659.949 690.94 659.8C691.506 659.64 692.039 659.56 692.54 659.56C693.212 659.56 693.799 659.672 694.3 659.896C694.812 660.12 695.207 660.429 695.484 660.824C695.772 661.219 695.916 661.683 695.916 662.216C695.916 662.547 695.868 662.861 695.772 663.16C695.676 663.448 695.522 663.741 695.308 664.04C695.095 664.328 694.802 664.643 694.428 664.984C694.098 665.283 693.831 665.555 693.628 665.8C693.436 666.045 693.292 666.28 693.196 666.504C693.111 666.728 693.052 666.968 693.02 667.224C693.01 667.373 692.946 667.496 692.828 667.592C692.722 667.688 692.572 667.736 692.38 667.736ZM692.348 671.08C691.986 671.08 691.692 670.968 691.468 670.744C691.255 670.52 691.148 670.232 691.148 669.88C691.148 669.539 691.255 669.261 691.468 669.048C691.692 668.824 691.986 668.712 692.348 668.712C692.722 668.712 693.01 668.824 693.212 669.048C693.426 669.261 693.532 669.539 693.532 669.88C693.532 670.232 693.426 670.52 693.212 670.744C693.01 670.968 692.722 671.08 692.348 671.08ZM701.207 667.736C701.004 667.736 700.844 667.672 700.727 667.544C700.62 667.405 700.567 667.224 700.567 667C700.567 666.669 700.604 666.36 700.679 666.072C700.764 665.773 700.898 665.475 701.079 665.176C701.26 664.877 701.5 664.563 701.799 664.232C702.023 663.976 702.199 663.752 702.327 663.56C702.466 663.357 702.562 663.165 702.615 662.984C702.679 662.803 702.711 662.616 702.711 662.424C702.711 662.072 702.583 661.795 702.327 661.592C702.071 661.389 701.708 661.288 701.239 661.288C700.812 661.288 700.423 661.347 700.071 661.464C699.73 661.571 699.383 661.725 699.031 661.928C698.796 662.067 698.583 662.131 698.391 662.12C698.21 662.099 698.06 662.029 697.943 661.912C697.826 661.795 697.751 661.651 697.719 661.48C697.687 661.309 697.714 661.133 697.799 660.952C697.884 660.771 698.039 660.605 698.263 660.456C698.7 660.168 699.202 659.949 699.767 659.8C700.332 659.64 700.866 659.56 701.367 659.56C702.039 659.56 702.626 659.672 703.127 659.896C703.639 660.12 704.034 660.429 704.311 660.824C704.599 661.219 704.743 661.683 704.743 662.216C704.743 662.547 704.695 662.861 704.599 663.16C704.503 663.448 704.348 663.741 704.135 664.04C703.922 664.328 703.628 664.643 703.255 664.984C702.924 665.283 702.658 665.555 702.455 665.8C702.263 666.045 702.119 666.28 702.023 666.504C701.938 666.728 701.879 666.968 701.847 667.224C701.836 667.373 701.772 667.496 701.655 667.592C701.548 667.688 701.399 667.736 701.207 667.736ZM701.175 671.08C700.812 671.08 700.519 670.968 700.295 670.744C700.082 670.52 699.975 670.232 699.975 669.88C699.975 669.539 700.082 669.261 700.295 669.048C700.519 668.824 700.812 668.712 701.175 668.712C701.548 668.712 701.836 668.824 702.039 669.048C702.252 669.261 702.359 669.539 702.359 669.88C702.359 670.232 702.252 670.52 702.039 670.744C701.836 670.968 701.548 671.08 701.175 671.08Z" fill="white"/>
<path d="M729 622C729 626.418 732.582 630 737 630C741.418 630 745 626.418 745 622C745 617.582 741.418 614 737 614C732.582 614 729 617.582 729 622ZM655.546 332.07C654.757 332.321 654.32 333.164 654.57 333.954L658.654 346.821C658.905 347.611 659.748 348.048 660.537 347.797C661.327 347.547 661.764 346.703 661.513 345.914L657.883 334.476L669.321 330.846C670.111 330.595 670.548 329.752 670.297 328.963C670.047 328.173 669.203 327.736 668.414 327.987L655.546 332.07ZM659.83 337.288C660.55 337.698 661.466 337.447 661.876 336.727C662.286 336.007 662.035 335.091 661.315 334.681L659.83 337.288ZM670.225 340.244C669.541 339.777 668.608 339.953 668.141 340.637C667.673 341.321 667.849 342.255 668.534 342.722L670.225 340.244ZM676.745 348.846C677.387 349.369 678.332 349.272 678.855 348.63C679.378 347.987 679.281 347.043 678.638 346.52L676.745 348.846ZM686.504 353.501C685.909 352.925 684.959 352.941 684.383 353.536C683.807 354.132 683.822 355.081 684.418 355.657L686.504 353.501ZM691.468 363.096C692.012 363.721 692.959 363.788 693.585 363.244C694.21 362.701 694.276 361.753 693.733 361.128L691.468 363.096ZM700.275 369.347C699.788 368.677 698.85 368.53 698.18 369.017C697.51 369.505 697.363 370.443 697.85 371.113L700.275 369.347ZM703.528 379.653C703.957 380.361 704.879 380.588 705.588 380.159C706.297 379.73 706.523 378.808 706.094 378.099L703.528 379.653ZM711.156 387.306C710.787 386.564 709.887 386.262 709.145 386.63C708.403 386.999 708.1 387.899 708.469 388.641L711.156 387.306ZM712.657 398.006C712.964 398.776 713.837 399.15 714.606 398.843C715.376 398.535 715.75 397.662 715.443 396.893L712.657 398.006ZM718.949 406.788C718.704 405.997 717.863 405.555 717.072 405.801C716.281 406.047 715.839 406.888 716.085 407.679L718.949 406.788ZM718.751 417.592C718.936 418.4 719.74 418.905 720.548 418.72C721.355 418.536 721.86 417.731 721.676 416.924L718.751 417.592ZM723.626 427.237C723.503 426.417 722.739 425.853 721.919 425.977C721.1 426.1 720.536 426.864 720.66 427.683L723.626 427.237ZM721.812 437.89C721.875 438.716 722.595 439.335 723.422 439.273C724.248 439.21 724.866 438.49 724.804 437.664L721.812 437.89ZM725.213 448.148C725.211 447.319 724.538 446.649 723.709 446.651C722.881 446.653 722.211 447.326 722.213 448.155L725.213 448.148ZM721.861 458.42C721.802 459.247 722.424 459.964 723.25 460.023C724.077 460.082 724.794 459.46 724.853 458.633L721.861 458.42ZM723.719 469.065C723.84 468.245 723.273 467.483 722.453 467.363C721.633 467.243 720.871 467.809 720.751 468.629L723.719 469.065ZM718.875 478.721C718.693 479.529 719.199 480.333 720.007 480.515C720.815 480.698 721.619 480.191 721.801 479.383L718.875 478.721ZM719.081 489.525C719.328 488.734 718.887 487.893 718.096 487.646C717.305 487.399 716.464 487.84 716.217 488.631L719.081 489.525ZM713.091 498.355C712.884 499.157 713.367 499.975 714.169 500.182C714.971 500.389 715.789 499.906 715.996 499.104L713.091 498.355ZM714.485 508.577C714.538 507.75 713.911 507.037 713.084 506.984C712.257 506.931 711.544 507.558 711.491 508.385L714.485 508.577ZM711.75 518.521C711.842 519.345 712.584 519.937 713.407 519.845C714.231 519.753 714.823 519.011 714.731 518.188L711.75 518.521ZM716.528 527.682C716.317 526.881 715.497 526.402 714.696 526.612C713.895 526.823 713.416 527.643 713.626 528.444L716.528 527.682ZM716.736 538C717.033 538.773 717.9 539.159 718.674 538.862C719.447 538.565 719.833 537.697 719.536 536.924L716.736 538ZM723.412 545.896C723.056 545.147 722.161 544.829 721.413 545.184C720.665 545.54 720.346 546.435 720.702 547.183L723.412 545.896ZM725.209 556.067C725.599 556.798 726.508 557.074 727.239 556.683C727.969 556.293 728.245 555.384 727.855 554.653L725.209 556.067ZM732.606 563.299C732.202 562.576 731.288 562.317 730.565 562.721C729.842 563.125 729.583 564.039 729.987 564.762L732.606 563.299ZM734.776 573.398C735.171 574.126 736.081 574.396 736.809 574.001C737.538 573.606 737.807 572.695 737.412 571.967L734.776 573.398ZM741.966 580.83C741.61 580.082 740.715 579.763 739.967 580.119C739.219 580.474 738.9 581.369 739.256 582.117L741.966 580.83ZM742.953 591.096C743.216 591.882 744.066 592.305 744.851 592.043C745.637 591.78 746.061 590.93 745.798 590.144L742.953 591.096ZM747.977 600.122C747.909 599.297 747.184 598.683 746.359 598.751C745.533 598.819 744.919 599.544 744.987 600.369L747.977 600.122ZM744.017 609.55C743.76 610.338 744.19 611.185 744.977 611.442C745.765 611.699 746.612 611.269 746.869 610.481L744.017 609.55ZM741.663 619.485C742.205 618.859 742.138 617.912 741.512 617.369C740.885 616.827 739.938 616.894 739.396 617.52L741.663 619.485ZM655.31 334.832C656.845 335.628 658.352 336.447 659.83 337.288L661.315 334.681C659.802 333.82 658.261 332.982 656.69 332.168L655.31 334.832ZM668.534 342.722C671.393 344.674 674.13 346.718 676.745 348.846L678.638 346.52C675.958 344.339 673.154 342.244 670.225 340.244L668.534 342.722ZM684.418 355.657C686.897 358.057 689.247 360.539 691.468 363.096L693.733 361.128C691.455 358.507 689.046 355.961 686.504 353.501L684.418 355.657ZM697.85 371.113C699.875 373.894 701.767 376.744 703.528 379.653L706.094 378.099C704.29 375.118 702.351 372.198 700.275 369.347L697.85 371.113ZM708.469 388.641C709.997 391.715 711.392 394.841 712.657 398.006L715.443 396.893C714.148 393.654 712.72 390.454 711.156 387.306L708.469 388.641ZM716.085 407.679C717.103 410.956 717.991 414.264 718.751 417.592L721.676 416.924C720.899 413.523 719.991 410.141 718.949 406.788L716.085 407.679ZM720.66 427.683C721.171 431.081 721.555 434.487 721.812 437.89L724.804 437.664C724.54 434.188 724.149 430.708 723.626 427.237L720.66 427.683ZM722.213 448.155C722.221 451.596 722.103 455.022 721.861 458.42L724.853 458.633C725.1 455.162 725.221 451.662 725.213 448.148L722.213 448.155ZM720.751 468.629C720.251 472.04 719.624 475.408 718.875 478.721L721.801 479.383C722.568 475.994 723.208 472.55 723.719 469.065L720.751 468.629ZM716.217 488.631C715.705 490.271 715.162 491.892 714.588 493.494L717.412 494.506C718 492.865 718.557 491.204 719.081 489.525L716.217 488.631ZM714.588 493.494C714.005 495.121 713.508 496.741 713.091 498.355L715.996 499.104C716.389 497.58 716.86 496.047 717.412 494.506L714.588 493.494ZM711.491 508.385C711.271 511.809 711.377 515.189 711.75 518.521L714.731 518.188C714.377 515.016 714.277 511.812 714.485 508.577L711.491 508.385ZM713.626 528.444C714.475 531.679 715.532 534.866 716.736 538L719.536 536.924C718.365 533.876 717.345 530.795 716.528 527.682L713.626 528.444ZM720.702 547.183C722.133 550.194 723.654 553.157 725.209 556.067L727.855 554.653C726.315 551.771 724.816 548.852 723.412 545.896L720.702 547.183ZM729.987 564.762C731.63 567.702 733.244 570.576 734.776 573.398L737.412 571.967C735.869 569.125 734.243 566.23 732.606 563.299L729.987 564.762ZM739.256 582.117C740.722 585.202 741.982 588.194 742.953 591.096L745.798 590.144C744.778 587.095 743.466 583.987 741.966 580.83L739.256 582.117ZM744.987 600.369C745.252 603.57 744.972 606.624 744.017 609.55L746.869 610.481C747.965 607.12 748.269 603.659 747.977 600.122L744.987 600.369ZM739.396 617.52C738.42 618.647 737.299 619.761 736.02 620.864L737.98 623.136C739.359 621.946 740.584 620.73 741.663 619.485L739.396 617.52Z" fill="white"/>
<path fill-rule="evenodd" clip-rule="evenodd" d="M500.085 1072.6C507.574 1011.03 555.485 969.068 592.558 919.34C640.949 854.432 666.115 757.216 745.817 742.992C829.641 728.032 905.228 792.771 965.662 852.754C1026.37 913.009 1079.94 987.088 1077.9 1072.6C1075.9 1156.7 1014.34 1222.16 955.422 1282.2C895.709 1343.06 831.027 1413.99 745.817 1411.06C661.924 1408.19 599.429 1336.23 550.112 1268.3C508.989 1211.66 491.633 1142.08 500.085 1072.6Z" fill="#5C68CD"/>
</g>
<defs>
<linearGradient id="paint0_linear_1336_33708" x1="7.72155e-06" y1="483" x2="832" y2="483" gradientUnits="userSpaceOnUse">
<stop stop-color="#434EAB"/>
<stop offset="1" stop-color="#7A85EF"/>
<stop offset="1" stop-color="#7A85EF"/>
</linearGradient>
<clipPath id="clip0_1336_33708">
<path d="M0 32C0 14.3269 14.3269 0 32 0H832V1024H32C14.3269 1024 0 1009.67 0 992V32Z" fill="white"/>
</clipPath>
</defs>
</svg>
