<svg width="360" height="240" viewBox="0 0 360 240" fill="none" xmlns="http://www.w3.org/2000/svg">
<g clip-path="url(#clip0_1345_33708)">
<rect width="360" height="240" fill="url(#paint0_linear_1345_33708)"/>
<path fill-rule="evenodd" clip-rule="evenodd" d="M269.985 259.396C273.523 230.187 296.158 210.282 313.674 186.692C336.536 155.901 348.425 109.783 386.08 103.035C425.683 95.9382 461.394 126.649 489.945 155.104C518.627 183.689 543.937 218.831 542.973 259.396C542.026 299.292 512.942 330.344 485.107 358.83C456.896 387.7 426.338 421.345 386.08 419.959C346.445 418.594 316.92 384.459 293.62 352.235C274.192 325.365 265.992 292.358 269.985 259.396Z" fill="#5C68CD"/>
<path opacity="0.2" fill-rule="evenodd" clip-rule="evenodd" d="M0.351715 -177.778C40.4053 -175.031 68.8813 -140.403 93.2896 -108.465C113.943 -81.4403 121.522 -49.253 124.491 -15.3453C127.871 23.2582 140.236 70.1257 111.166 95.6857C82.2993 121.066 38.7446 92.8338 0.351715 93.8033C-40.1066 94.825 -86.1986 128.651 -116.193 101.427C-146.138 74.2467 -121.701 25.0991 -119.901 -15.3453C-118.242 -52.6208 -128.43 -92.1814 -106.244 -122.149C-81.4317 -155.665 -41.1988 -180.628 0.351715 -177.778Z" fill="#434EAB"/>
</g>
<defs>
<linearGradient id="paint0_linear_1345_33708" x1="3.34106e-06" y1="113.203" x2="360" y2="113.203" gradientUnits="userSpaceOnUse">
<stop stop-color="#434EAB"/>
<stop offset="1" stop-color="#7A85EF"/>
<stop offset="1" stop-color="#7A85EF"/>
</linearGradient>
<clipPath id="clip0_1345_33708">
<rect width="360" height="240" fill="white"/>
</clipPath>
</defs>
</svg>
